<svg width="80" height="82" viewBox="0 0 80 82" fill="none" xmlns="http://www.w3.org/2000/svg">
<rect x="0.5" y="16.5" width="63" height="63" rx="19.5" fill="#F5EAF8" stroke="#E1C7E8"/>
<g filter="url(#filter0_d)">
<ellipse rx="15.4528" ry="13.223" transform="matrix(0.000316429 -1 1 0.000339494 47.8299 38.5651)" fill="#0B1219"/>
</g>
<path d="M48 55.1111C46.8385 55.1111 45.675 54.8262 44.6355 54.2874C41.4939 52.6587 35.359 49.1665 29.5717 44.0754C22.0431 37.4526 17.5809 30.3438 16.3085 22.9466C15.3203 17.2003 16.7313 11.3341 20.1796 6.85233C23.3734 2.70164 27.8987 0.276012 32.9224 0.022466C33.2178 0.0074886 33.5171 0 33.8118 0C38.5186 0 42.9619 1.87895 46.3231 5.29076C46.9302 5.90716 47.49 6.56099 47.9999 7.24728C48.5099 6.56099 49.0697 5.9068 49.6768 5.29059C53.038 1.87895 57.4814 0 62.1882 0C62.4829 0 62.7823 0.0074886 63.0776 0.022466C68.1013 0.276012 72.6269 2.70164 75.8206 6.85269C79.269 11.3345 80.6798 17.2006 79.6914 22.9468C78.4193 30.3438 73.957 37.4526 66.4284 44.0754C60.6413 49.1663 54.5065 52.6587 51.3645 54.2874C50.325 54.8264 49.1616 55.1111 48 55.1111Z" fill="url(#paint0_linear)"/>
<path d="M18.6333 30.2227C20.8894 35.0176 24.5464 39.6547 29.5715 44.0753C35.3587 49.1664 41.4937 52.6586 44.6353 54.2872C45.6748 54.8261 46.8384 55.111 48 55.111C49.1616 55.111 50.325 54.8262 51.3647 54.2872C54.5066 52.6586 60.6414 49.1662 66.4285 44.0753C71.4536 39.6547 75.1105 35.0174 77.3667 30.2227H18.6333Z" fill="url(#paint1_linear)"/>
<path d="M48.0007 34.4862C40.7391 26.9643 40.7392 14.7691 48.0008 7.24745C47.491 6.56099 46.9312 5.90716 46.3241 5.29076C42.9627 1.87895 38.5194 0 33.8128 0C33.5181 0 33.2188 0.0074886 32.9234 0.022466C27.8997 0.276012 23.3743 2.70164 20.1806 6.85233C16.7323 11.3343 15.3213 17.2003 16.3095 22.9466C17.5817 30.3438 22.0441 37.4526 29.5727 44.0754C35.3599 49.1665 41.4949 52.6587 44.6365 54.2874C45.676 54.8262 46.8396 55.1111 48.0012 55.1111C49.1627 55.1111 50.3262 54.8264 51.3659 54.2874C53.5695 53.1451 57.2456 51.0849 61.2409 48.2006L48.0007 34.4862Z" fill="url(#paint2_linear)"/>
<path d="M77.102 30.771L72.7737 26.2875C72.4062 25.6041 71.7024 25.1412 70.8937 25.1412H63.8085C62.8496 25.1412 62.0063 25.7986 61.7409 26.7531L61.592 27.2885L55.9543 21.5541C55.5849 20.867 54.8884 20.4251 54.1169 20.41C54.1032 20.4098 54.0894 20.4096 54.0758 20.4096C53.2355 20.4096 52.4703 20.9171 52.1195 21.7109L51.7377 22.5748L44.7132 15.4106C44.3388 14.7122 43.6246 14.2634 42.8336 14.2634C42.8304 14.2634 42.8273 14.2634 42.824 14.2634C41.8945 14.2675 41.0726 14.8897 40.7863 15.8059L36.7963 28.5773L34.4883 26.2881C34.1151 25.5922 33.4018 25.1411 32.6083 25.1411H25.4505C24.2623 25.1411 23.2988 26.139 23.2988 27.3698C23.2988 28.2077 23.7457 28.9366 24.4055 29.3173L33.5194 38.7869L33.7402 39.5876C33.901 40.17 34.2773 40.6425 34.7642 40.923L48.4471 55.0966C49.4582 55.0333 50.4584 54.7569 51.3645 54.2871C54.5065 52.6585 60.6413 49.166 66.4284 44.0752C71.2617 39.8235 74.829 35.3712 77.102 30.771Z" fill="url(#paint3_linear)"/>
<path d="M72.8686 26.3858C72.8698 26.4168 72.873 26.4472 72.873 26.4785C72.873 27.7094 71.9096 28.7073 70.7214 28.7073H65.2555L62.4762 38.7012C62.2228 39.6119 61.4412 40.2572 60.5277 40.3096C60.4877 40.3121 60.4476 40.3132 60.408 40.3132C59.541 40.3132 58.7532 39.772 58.4196 38.9342L53.8009 27.3347L50.4991 34.8069C50.1312 35.6392 49.3112 36.1554 48.4269 36.1047C47.5444 36.0557 46.7808 35.4525 46.5013 34.584L42.6911 22.7431L37.6838 38.7707C37.3961 39.6915 36.5685 40.3132 35.637 40.3132C35.6244 40.3132 35.6118 40.313 35.5993 40.3128C34.6525 40.2957 33.8278 39.6397 33.5676 38.6967L30.8128 28.7077H25.2784C24.3903 28.7077 23.6281 28.1501 23.2995 27.3545C23.2995 27.3599 23.2988 27.3651 23.2988 27.3704C23.2988 28.2082 23.7457 28.9371 24.4055 29.3178L33.5194 38.7875L33.7402 39.5882C33.901 40.1706 34.2773 40.6431 34.7642 40.9235L48.4471 55.0971C49.4582 55.0338 50.4584 54.7575 51.3645 54.2876C54.5065 52.659 60.6413 49.1666 66.4284 44.0757C71.2617 39.8239 74.829 35.3714 77.102 30.7712L72.8686 26.3858Z" fill="url(#paint4_linear)"/>
<path d="M60.4083 41.026C59.5413 41.026 58.7534 40.4849 58.4198 39.647L53.8012 28.0476L50.4993 35.5197C50.1315 36.352 49.3114 36.8682 48.4272 36.8176C47.5447 36.7685 46.7811 36.1653 46.5015 35.2968L42.6914 23.4559L37.684 39.4835C37.3964 40.4043 36.5688 41.026 35.6372 41.026C35.6246 41.026 35.6121 41.0259 35.5995 41.0257C34.6528 41.0086 33.8281 40.3526 33.5678 39.4095L30.813 29.4205H25.2786C24.0904 29.4205 23.127 28.4226 23.127 27.1917C23.127 25.9609 24.0904 24.963 25.2786 24.963H32.4364C33.3971 24.963 34.2414 25.6227 34.5054 26.5794L35.7655 31.1483L40.6144 15.6276C40.9007 14.7113 41.7226 14.0892 42.6521 14.0851H42.6618C43.5875 14.0851 44.4098 14.6986 44.7028 15.6092L48.8584 28.5237L51.9475 21.5326C52.2983 20.7388 53.0634 20.2313 53.9038 20.2313C53.9174 20.2313 53.9311 20.2315 53.9449 20.2317C54.8013 20.2486 55.5664 20.7901 55.8929 21.6103L60.0477 32.0448L61.5688 26.5748C61.8343 25.6202 62.6774 24.963 63.6365 24.963H70.7216C71.9099 24.963 72.8733 25.9609 72.8733 27.1917C72.8733 28.4226 71.9099 29.4205 70.7216 29.4205H65.2557L62.4765 39.4144C62.2231 40.3251 61.4415 40.9704 60.5279 41.0228C60.488 41.025 60.4479 41.026 60.4083 41.026Z" fill="url(#paint5_linear)"/>
<path d="M72.8733 27.192C72.8733 28.4223 71.9094 29.4208 70.7216 29.4208H65.2564L62.4765 39.4146C62.2234 40.3257 61.442 40.9712 60.5279 41.0229C60.4884 41.0247 60.4488 41.0265 60.4074 41.0265C59.5416 41.0265 58.7533 40.4844 58.4193 39.6464L53.801 28.0478L50.4995 35.5205C50.1311 36.3514 49.3118 36.8685 48.427 36.8185C47.544 36.7686 46.7814 36.1659 46.5008 35.2976L42.6916 23.4565L37.6842 39.4841C37.3968 40.4042 36.5688 41.0265 35.6376 41.0265H35.5997C34.653 41.0086 33.8284 40.3525 33.5685 39.4093L30.8127 29.4208H25.2786C24.0909 29.4208 23.127 28.4223 23.127 27.192H31.2654C31.9591 27.192 32.5667 27.668 32.7578 28.3581L34.4016 34.3187C34.7735 35.6667 36.6049 35.6988 37.0215 34.3669L41.3782 20.4236C41.7844 19.1202 43.5625 19.1113 43.9791 20.4111L47.4441 31.1788C47.8366 32.4002 49.4719 32.4911 49.9883 31.3197L52.5926 25.4268C53.0918 24.2981 54.6479 24.3284 55.104 25.4749L58.9133 35.0409C59.4074 36.2818 61.1356 36.1838 61.4953 34.8929L63.313 28.3545C63.5041 27.6663 64.1117 27.192 64.8037 27.192H72.8733Z" fill="url(#paint6_linear)"/>
<defs>
<filter id="filter0_d" x="20.6069" y="22.1123" width="54.446" height="58.9057" filterUnits="userSpaceOnUse" color-interpolation-filters="sRGB">
<feFlood flood-opacity="0" result="BackgroundImageFix"/>
<feColorMatrix in="SourceAlpha" type="matrix" values="0 0 0 0 0 0 0 0 0 0 0 0 0 0 0 0 0 0 127 0"/>
<feOffset dy="13"/>
<feGaussianBlur stdDeviation="7"/>
<feColorMatrix type="matrix" values="0 0 0 0 0.815686 0 0 0 0 0.2 0 0 0 0 0.329412 0 0 0 0.5 0"/>
<feBlend mode="normal" in2="BackgroundImageFix" result="effect1_dropShadow"/>
<feBlend mode="normal" in="SourceGraphic" in2="effect1_dropShadow" result="shape"/>
</filter>
<linearGradient id="paint0_linear" x1="28.494" y1="0.449679" x2="65.7336" y2="36.4007" gradientUnits="userSpaceOnUse">
<stop stop-color="#FF9574"/>
<stop offset="1" stop-color="#CB2950"/>
</linearGradient>
<linearGradient id="paint1_linear" x1="47.9998" y1="33.2032" x2="47.9998" y2="54.6289" gradientUnits="userSpaceOnUse">
<stop stop-color="#E0166B" stop-opacity="0"/>
<stop offset="1" stop-color="#E22B62"/>
</linearGradient>
<linearGradient id="paint2_linear" x1="42.0385" y1="26.0648" x2="59.9641" y2="8.7593" gradientUnits="userSpaceOnUse">
<stop stop-color="#DC8A8A" stop-opacity="0"/>
<stop offset="1" stop-color="#C5063F"/>
</linearGradient>
<linearGradient id="paint3_linear" x1="51.9701" y1="35.3221" x2="44.8103" y2="12.3712" gradientUnits="userSpaceOnUse">
<stop stop-color="#E700B4" stop-opacity="0"/>
<stop offset="1" stop-color="#F94A50"/>
</linearGradient>
<linearGradient id="paint4_linear" x1="50.2004" y1="49.9624" x2="50.2004" y2="23.9507" gradientUnits="userSpaceOnUse">
<stop stop-color="#DA485B" stop-opacity="0"/>
<stop offset="1" stop-color="#F26B5B"/>
</linearGradient>
<linearGradient id="paint5_linear" x1="48.0001" y1="23.5346" x2="48.0001" y2="36.3745" gradientUnits="userSpaceOnUse">
<stop stop-color="#F7E07D"/>
<stop offset="1" stop-color="#E69642"/>
</linearGradient>
<linearGradient id="paint6_linear" x1="48.0001" y1="38.5213" x2="48.0001" y2="8.02698" gradientUnits="userSpaceOnUse">
<stop stop-color="#D52C1C" stop-opacity="0"/>
<stop offset="0.28" stop-color="#D12C1E" stop-opacity="0.28"/>
<stop offset="0.5735" stop-color="#C42C23" stop-opacity="0.574"/>
<stop offset="0.8721" stop-color="#AF2B2C" stop-opacity="0.872"/>
<stop offset="1" stop-color="#A42B31"/>
</linearGradient>
</defs>
</svg>
