<svg xmlns="http://www.w3.org/2000/svg" width="120" height="124" fill="none" viewBox="0 0 120 124">
    <path fill="#F3F7FB" d="M0 0H105V122H0z"/>
    <g filter="url(#filter0_d)">
        <ellipse cx="76.814" cy="87.461" fill="#0B1219" rx="4.239" ry="21.772" transform="rotate(89.416 76.814 87.46)"/>
    </g>
    <g filter="url(#filter1_d)">
        <ellipse cx="43.814" cy="87.461" fill="#0B1219" rx="4.239" ry="21.772" transform="rotate(89.416 43.814 87.46)"/>
    </g>
    <path fill="#DADCDE" d="M63.125 44c-.365 0-.714-.145-.972-.403s-.403-.607-.403-.972v-13.75c0-2.553-1.014-5-2.82-6.806-1.804-1.805-4.252-2.819-6.805-2.819s-5 1.014-6.806 2.82c-1.805 1.804-2.819 4.252-2.819 6.805v13.75c0 .365-.145.714-.403.972s-.607.403-.972.403-.714-.145-.972-.403-.403-.607-.403-.972v-13.75c0-3.282 1.304-6.43 3.625-8.75 2.32-2.321 5.468-3.625 8.75-3.625s6.43 1.304 8.75 3.625c2.321 2.32 3.625 5.468 3.625 8.75v13.75c0 .365-.145.714-.403.972s-.607.403-.972.403z"/>
    <path fill="#24AEB1" d="M65.875 92.125h-46.75l2.75-55h41.25l2.75 55z"/>
    <path fill="#fff" fill-rule="evenodd" d="M37.674 62.814v6.335h6.568v4.902l-4.6-1.536.006-.016.004-.008-2.272-.732c-4.541-1.516-6.993-6.294-5.553-10.74l.133-.38c1.646-4.378 6.58-6.69 11.12-5.174l1.162.385v6.964h-6.568zm18.904 0c-.972-2.074-2.778-3.769-5.16-4.565l-.646-.215v4.78h5.806zM50.772 74.73c2.77-.701 5.14-2.706 6.134-5.55.005-.011.007-.022.01-.033h-6.144v5.583z" clip-rule="evenodd"/>
    <path fill="#0B7E81" d="M76.875 92.125h-11l-2.75-55h11l2.75 55z"/>
    <path fill="#0B1219" fill-opacity=".3" d="M71.456 85.248c-.028.002-.055.002-.083.002-.35 0-.687-.134-.942-.375-.255-.24-.409-.57-.43-.92l-2.75-46.75-.001-.08h2.753l2.745 46.67c.022.363-.103.721-.345.994-.242.272-.583.438-.947.46z"/>
    <path fill="#EBA72E" d="M98.875 92.125h-11l-.172-2.222V89.9l-2.578-33.526h11l2.535 32.947v.001l.215 2.802z"/>
    <path fill="#E09F2C" d="M93.513 85.243c-.047.005-.093.007-.14.007-.34 0-.669-.127-.921-.356-.252-.228-.411-.543-.445-.882l-.05-.491-2.7-27.008c-.005-.046-.007-.092-.007-.138h2.757l2.702 27.02.034.343c.018.18 0 .36-.051.534-.052.172-.138.333-.252.473-.115.14-.255.256-.414.341-.16.086-.334.14-.513.157z"/>
    <path fill="#E09F2C" d="M98.875 92.125h-1.653l-3.847-5.772-3.847 5.772h-1.653l-.172-2.222V89.9l4.254-6.38.273-.41c.126-.187.296-.342.496-.448.2-.107.423-.163.649-.163.226 0 .45.056.649.163.2.106.37.26.496.449l.189.283 3.951 5.927v.001l.215 2.802z"/>
    <path fill="#F7B030" d="M87.875 92.125h-35.75l2.75-35.75h30.25l2.75 35.75z"/>
    <path fill="#fff" fill-rule="evenodd" d="M65.721 78.646v3.766h3.905v2.915l-2.735-.914.004-.008.002-.006-1.35-.435c-2.7-.901-4.158-3.742-3.302-6.386l.079-.226c.979-2.602 3.912-3.977 6.611-3.076l.691.23v4.14h-3.905zm11.24 0c-.578-1.233-1.652-2.24-3.068-2.714l-.384-.128v2.841h3.452zm-3.452 7.085c1.647-.417 3.055-1.608 3.647-3.3l.002-.006.002-.007.002-.006h-3.653v3.32z" clip-rule="evenodd"/>
    <path fill="#E9EEF2" d="M71.375 71.25h-2.75c-1.823-.002-3.57-.727-4.86-2.016-1.288-1.289-2.013-3.036-2.015-4.859v-3c0-.365.145-.714.403-.972s.607-.403.972-.403.714.145.972.403.403.607.403.972v3c.001 1.094.436 2.142 1.21 2.915.773.774 1.821 1.209 2.915 1.21h2.75c1.094-.001 2.142-.436 2.915-1.21.774-.773 1.209-1.821 1.21-2.915v-3c0-.365.145-.714.403-.972s.607-.403.972-.403.714.145.972.403.403.607.403.972v3c-.002 1.823-.727 3.57-2.016 4.86-1.289 1.288-3.036 2.013-4.859 2.015zM32.875 44c-.365 0-.714-.145-.972-.403s-.403-.607-.403-.972v-13.75c0-3.282 1.304-6.43 3.625-8.75 2.32-2.321 5.468-3.625 8.75-3.625s6.43 1.304 8.75 3.625c2.321 2.32 3.625 5.468 3.625 8.75v13.75c0 .365-.145.714-.403.972s-.607.403-.972.403-.714-.145-.972-.403-.403-.607-.403-.972v-13.75c0-2.553-1.014-5-2.82-6.806-1.804-1.805-4.252-2.819-6.805-2.819s-5 1.014-6.806 2.82c-1.805 1.804-2.819 4.252-2.819 6.805v13.75c0 .365-.145.714-.403.972s-.607.403-.972.403z"/>
    <defs>
        <filter id="filter0_d" width="81.541" height="46.49" x="38.043" y="77.216" color-interpolation-filters="sRGB" filterUnits="userSpaceOnUse">
            <feFlood flood-opacity="0" result="BackgroundImageFix"/>
            <feColorMatrix in="SourceAlpha" values="0 0 0 0 0 0 0 0 0 0 0 0 0 0 0 0 0 0 127 0"/>
            <feOffset dx="2" dy="13"/>
            <feGaussianBlur stdDeviation="9.5"/>
            <feColorMatrix values="0 0 0 0 0.968627 0 0 0 0 0.690196 0 0 0 0 0.188235 0 0 0 0.7 0"/>
            <feBlend in2="BackgroundImageFix" result="effect1_dropShadow"/>
            <feBlend in="SourceGraphic" in2="effect1_dropShadow" result="shape"/>
        </filter>
        <filter id="filter1_d" width="81.541" height="46.49" x="5.043" y="77.216" color-interpolation-filters="sRGB" filterUnits="userSpaceOnUse">
            <feFlood flood-opacity="0" result="BackgroundImageFix"/>
            <feColorMatrix in="SourceAlpha" values="0 0 0 0 0 0 0 0 0 0 0 0 0 0 0 0 0 0 127 0"/>
            <feOffset dx="2" dy="13"/>
            <feGaussianBlur stdDeviation="9.5"/>
            <feColorMatrix values="0 0 0 0 0.141176 0 0 0 0 0.682353 0 0 0 0 0.694118 0 0 0 0.8 0"/>
            <feBlend in2="BackgroundImageFix" result="effect1_dropShadow"/>
            <feBlend in="SourceGraphic" in2="effect1_dropShadow" result="shape"/>
        </filter>
    </defs>
</svg>
